<svg id="wave" style="transform:rotate(0deg); transition: 0.3s" viewBox="0 0 1440 490" version="1.1" xmlns="http://www.w3.org/2000/svg">
    <defs><linearGradient id="sw-gradient-0" x1="0" x2="0" y1="1" y2="0"><stop stop-color="#f2f2f2" offset="0%"></stop><stop stop-color="#4F5256" offset="100%"></stop></linearGradient></defs><path style="transform:translate(0, 0px); opacity:1" fill="url(#sw-gradient-0)" 
    d="M0,245L26.7,212.3C53.3,180,107,114,160,73.5C213.3,33,267,16,320,57.2C373.3,98,427,196,480,245C533.3,294,587,294,640,253.2C693.3,212,747,131,800,122.5C853.3,114,907,180,960,204.2C1013.3,229,1067,212,1120,179.7C1173.3,147,1227,98,1280,106.2C1333.3,114,1387,180,1440,171.5C1493.3,163,1547,82,1600,89.8C1653.3,98,1707,196,1760,212.3C1813.3,229,1867,163,1920,114.3C1973.3,65,2027,33,2080,81.7C2133.3,131,2187,261,2240,310.3C2293.3,359,2347,327,2400,334.8C2453.3,343,2507,392,2560,351.2C2613.3,310,2667,180,2720,122.5C2773.3,65,2827,82,2880,98C2933.3,114,2987,131,3040,155.2C3093.3,180,3147,212,3200,245C3253.3,278,3307,310,3360,269.5C3413.3,229,3467,114,3520,114.3C3573.3,114,3627,229,3680,277.7C3733.3,327,3787,310,3813,302.2L3840,294L3840,490L3813.3,490C3786.7,490,3733,490,3680,490C3626.7,490,3573,490,3520,490C3466.7,490,3413,490,3360,490C3306.7,490,3253,490,3200,490C3146.7,490,3093,490,3040,490C2986.7,490,2933,490,2880,490C2826.7,490,2773,490,2720,490C2666.7,490,2613,490,2560,490C2506.7,490,2453,490,2400,490C2346.7,490,2293,490,2240,490C2186.7,490,2133,490,2080,490C2026.7,490,1973,490,1920,490C1866.7,490,1813,490,1760,490C1706.7,490,1653,490,1600,490C1546.7,490,1493,490,1440,490C1386.7,490,1333,490,1280,490C1226.7,490,1173,490,1120,490C1066.7,490,1013,490,960,490C906.7,490,853,490,800,490C746.7,490,693,490,640,490C586.7,490,533,490,480,490C426.7,490,373,490,320,490C266.7,490,213,490,160,490C106.7,490,53,490,27,490L0,490Z"></path>
    <defs><linearGradient id="sw-gradient-1" x1="0" x2="0" y1="1" y2="0"><stop stop-color="#141010" offset="0%"></stop><stop stop-color="#141010" offset="100%"></stop></linearGradient></defs><path style="transform:translate(0, 1px); opacity:1" fill="url(#sw-gradient-1)" 
    d="M0,245L26.7,212.3C53.3,180,107,114,160,73.5C213.3,33,267,16,320,57.2C373.3,98,427,196,480,245C533.3,294,587,294,640,253.2C693.3,212,747,131,800,122.5C853.3,114,907,180,960,204.2C1013.3,229,1067,212,1120,179.7C1173.3,147,1227,98,1280,106.2C1333.3,114,1387,180,1440,171.5C1493.3,163,1547,82,1600,89.8C1653.3,98,1707,196,1760,212.3C1813.3,229,1867,163,1920,114.3C1973.3,65,2027,33,2080,81.7C2133.3,131,2187,261,2240,310.3C2293.3,359,2347,327,2400,334.8C2453.3,343,2507,392,2560,351.2C2613.3,310,2667,180,2720,122.5C2773.3,65,2827,82,2880,98C2933.3,114,2987,131,3040,155.2C3093.3,180,3147,212,3200,245C3253.3,278,3307,310,3360,269.5C3413.3,229,3467,114,3520,114.3C3573.3,114,3627,229,3680,277.7C3733.3,327,3787,310,3813,302.2L3840,294L3840,490L3813.3,490C3786.7,490,3733,490,3680,490C3626.7,490,3573,490,3520,490C3466.7,490,3413,490,3360,490C3306.7,490,3253,490,3200,490C3146.7,490,3093,490,3040,490C2986.7,490,2933,490,2880,490C2826.7,490,2773,490,2720,490C2666.7,490,2613,490,2560,490C2506.7,490,2453,490,2400,490C2346.7,490,2293,490,2240,490C2186.7,490,2133,490,2080,490C2026.7,490,1973,490,1920,490C1866.7,490,1813,490,1760,490C1706.7,490,1653,490,1600,490C1546.7,490,1493,490,1440,490C1386.7,490,1333,490,1280,490C1226.7,490,1173,490,1120,490C1066.7,490,1013,490,960,490C906.7,490,853,490,800,490C746.7,490,693,490,640,490C586.7,490,533,490,480,490C426.7,490,373,490,320,490C266.7,490,213,490,160,490C106.7,490,53,490,27,490L0,490Z"></path>
    <defs><linearGradient id="sw-gradient-2" x1="0" x2="0" y1="1" y2="0"><stop stop-color="#f2f2f2" offset="0%"></stop><stop stop-color="#4F5256" offset="100%"></stop></linearGradient></defs><path style="transform:translate(0, 10px); opacity:0.8" fill="url(#sw-gradient-2)" 
    d="M0,245L26.7,212.3C53.3,180,107,114,160,73.5C213.3,33,267,16,320,57.2C373.3,98,427,196,480,245C533.3,294,587,294,640,253.2C693.3,212,747,131,800,122.5C853.3,114,907,180,960,204.2C1013.3,229,1067,212,1120,179.7C1173.3,147,1227,98,1280,106.2C1333.3,114,1387,180,1440,171.5C1493.3,163,1547,82,1600,89.8C1653.3,98,1707,196,1760,212.3C1813.3,229,1867,163,1920,114.3C1973.3,65,2027,33,2080,81.7C2133.3,131,2187,261,2240,310.3C2293.3,359,2347,327,2400,334.8C2453.3,343,2507,392,2560,351.2C2613.3,310,2667,180,2720,122.5C2773.3,65,2827,82,2880,98C2933.3,114,2987,131,3040,155.2C3093.3,180,3147,212,3200,245C3253.3,278,3307,310,3360,269.5C3413.3,229,3467,114,3520,114.3C3573.3,114,3627,229,3680,277.7C3733.3,327,3787,310,3813,302.2L3840,294L3840,490L3813.3,490C3786.7,490,3733,490,3680,490C3626.7,490,3573,490,3520,490C3466.7,490,3413,490,3360,490C3306.7,490,3253,490,3200,490C3146.7,490,3093,490,3040,490C2986.7,490,2933,490,2880,490C2826.7,490,2773,490,2720,490C2666.7,490,2613,490,2560,490C2506.7,490,2453,490,2400,490C2346.7,490,2293,490,2240,490C2186.7,490,2133,490,2080,490C2026.7,490,1973,490,1920,490C1866.7,490,1813,490,1760,490C1706.7,490,1653,490,1600,490C1546.7,490,1493,490,1440,490C1386.7,490,1333,490,1280,490C1226.7,490,1173,490,1120,490C1066.7,490,1013,490,960,490C906.7,490,853,490,800,490C746.7,490,693,490,640,490C586.7,490,533,490,480,490C426.7,490,373,490,320,490C266.7,490,213,490,160,490C106.7,490,53,490,27,490L0,490Z"></path>
    <defs><linearGradient id="sw-gradient-3" x1="0" x2="0" y1="1" y2="0"><stop stop-color="rgba(0, 0, 0, 1)" offset="0%"></stop><stop stop-color="#141010" offset="100%"></stop></linearGradient></defs><path style="transform:translate(0, 11px); opacity:1" fill="url(#sw-gradient-3)" 
    d="M0,245L26.7,212.3C53.3,180,107,114,160,73.5C213.3,33,267,16,320,57.2C373.3,98,427,196,480,245C533.3,294,587,294,640,253.2C693.3,212,747,131,800,122.5C853.3,114,907,180,960,204.2C1013.3,229,1067,212,1120,179.7C1173.3,147,1227,98,1280,106.2C1333.3,114,1387,180,1440,171.5C1493.3,163,1547,82,1600,89.8C1653.3,98,1707,196,1760,212.3C1813.3,229,1867,163,1920,114.3C1973.3,65,2027,33,2080,81.7C2133.3,131,2187,261,2240,310.3C2293.3,359,2347,327,2400,334.8C2453.3,343,2507,392,2560,351.2C2613.3,310,2667,180,2720,122.5C2773.3,65,2827,82,2880,98C2933.3,114,2987,131,3040,155.2C3093.3,180,3147,212,3200,245C3253.3,278,3307,310,3360,269.5C3413.3,229,3467,114,3520,114.3C3573.3,114,3627,229,3680,277.7C3733.3,327,3787,310,3813,302.2L3840,294L3840,490L3813.3,490C3786.7,490,3733,490,3680,490C3626.7,490,3573,490,3520,490C3466.7,490,3413,490,3360,490C3306.7,490,3253,490,3200,490C3146.7,490,3093,490,3040,490C2986.7,490,2933,490,2880,490C2826.7,490,2773,490,2720,490C2666.7,490,2613,490,2560,490C2506.7,490,2453,490,2400,490C2346.7,490,2293,490,2240,490C2186.7,490,2133,490,2080,490C2026.7,490,1973,490,1920,490C1866.7,490,1813,490,1760,490C1706.7,490,1653,490,1600,490C1546.7,490,1493,490,1440,490C1386.7,490,1333,490,1280,490C1226.7,490,1173,490,1120,490C1066.7,490,1013,490,960,490C906.7,490,853,490,800,490C746.7,490,693,490,640,490C586.7,490,533,490,480,490C426.7,490,373,490,320,490C266.7,490,213,490,160,490C106.7,490,53,490,27,490L0,490Z"></path>
    <defs><linearGradient id="sw-gradient-4" x1="0" x2="0" y1="1" y2="0"><stop stop-color="#f2f2f2" offset="0%"></stop><stop stop-color="#4F5256" offset="100%"></stop></linearGradient></defs><path style="transform:translate(0, 20px); opacity:0.8" fill="url(#sw-gradient-4)" 
    d="M0,245L26.7,212.3C53.3,180,107,114,160,73.5C213.3,33,267,16,320,57.2C373.3,98,427,196,480,245C533.3,294,587,294,640,253.2C693.3,212,747,131,800,122.5C853.3,114,907,180,960,204.2C1013.3,229,1067,212,1120,179.7C1173.3,147,1227,98,1280,106.2C1333.3,114,1387,180,1440,171.5C1493.3,163,1547,82,1600,89.8C1653.3,98,1707,196,1760,212.3C1813.3,229,1867,163,1920,114.3C1973.3,65,2027,33,2080,81.7C2133.3,131,2187,261,2240,310.3C2293.3,359,2347,327,2400,334.8C2453.3,343,2507,392,2560,351.2C2613.3,310,2667,180,2720,122.5C2773.3,65,2827,82,2880,98C2933.3,114,2987,131,3040,155.2C3093.3,180,3147,212,3200,245C3253.3,278,3307,310,3360,269.5C3413.3,229,3467,114,3520,114.3C3573.3,114,3627,229,3680,277.7C3733.3,327,3787,310,3813,302.2L3840,294L3840,490L3813.3,490C3786.7,490,3733,490,3680,490C3626.7,490,3573,490,3520,490C3466.7,490,3413,490,3360,490C3306.7,490,3253,490,3200,490C3146.7,490,3093,490,3040,490C2986.7,490,2933,490,2880,490C2826.7,490,2773,490,2720,490C2666.7,490,2613,490,2560,490C2506.7,490,2453,490,2400,490C2346.7,490,2293,490,2240,490C2186.7,490,2133,490,2080,490C2026.7,490,1973,490,1920,490C1866.7,490,1813,490,1760,490C1706.7,490,1653,490,1600,490C1546.7,490,1493,490,1440,490C1386.7,490,1333,490,1280,490C1226.7,490,1173,490,1120,490C1066.7,490,1013,490,960,490C906.7,490,853,490,800,490C746.7,490,693,490,640,490C586.7,490,533,490,480,490C426.7,490,373,490,320,490C266.7,490,213,490,160,490C106.7,490,53,490,27,490L0,490Z"></path>
    <defs><linearGradient id="sw-gradient-5" x1="0" x2="0" y1="1" y2="0"><stop stop-color="rgba(0, 0, 0, 1)" offset="0%"></stop><stop stop-color="#141010" offset="100%"></stop></linearGradient></defs><path style="transform:translate(0, 21px); opacity:1" fill="url(#sw-gradient-5)" 
    d="M0,245L26.7,212.3C53.3,180,107,114,160,73.5C213.3,33,267,16,320,57.2C373.3,98,427,196,480,245C533.3,294,587,294,640,253.2C693.3,212,747,131,800,122.5C853.3,114,907,180,960,204.2C1013.3,229,1067,212,1120,179.7C1173.3,147,1227,98,1280,106.2C1333.3,114,1387,180,1440,171.5C1493.3,163,1547,82,1600,89.8C1653.3,98,1707,196,1760,212.3C1813.3,229,1867,163,1920,114.3C1973.3,65,2027,33,2080,81.7C2133.3,131,2187,261,2240,310.3C2293.3,359,2347,327,2400,334.8C2453.3,343,2507,392,2560,351.2C2613.3,310,2667,180,2720,122.5C2773.3,65,2827,82,2880,98C2933.3,114,2987,131,3040,155.2C3093.3,180,3147,212,3200,245C3253.3,278,3307,310,3360,269.5C3413.3,229,3467,114,3520,114.3C3573.3,114,3627,229,3680,277.7C3733.3,327,3787,310,3813,302.2L3840,294L3840,490L3813.3,490C3786.7,490,3733,490,3680,490C3626.7,490,3573,490,3520,490C3466.7,490,3413,490,3360,490C3306.7,490,3253,490,3200,490C3146.7,490,3093,490,3040,490C2986.7,490,2933,490,2880,490C2826.7,490,2773,490,2720,490C2666.7,490,2613,490,2560,490C2506.7,490,2453,490,2400,490C2346.7,490,2293,490,2240,490C2186.7,490,2133,490,2080,490C2026.7,490,1973,490,1920,490C1866.7,490,1813,490,1760,490C1706.7,490,1653,490,1600,490C1546.7,490,1493,490,1440,490C1386.7,490,1333,490,1280,490C1226.7,490,1173,490,1120,490C1066.7,490,1013,490,960,490C906.7,490,853,490,800,490C746.7,490,693,490,640,490C586.7,490,533,490,480,490C426.7,490,373,490,320,490C266.7,490,213,490,160,490C106.7,490,53,490,27,490L0,490Z"></path>

    <defs><linearGradient id="sw-gradient-6" x1="0" x2="0" y1="1" y2="0"><stop stop-color="#f2f2f2" offset="0%"></stop><stop stop-color="#4F5256" offset="100%"></stop></linearGradient></defs><path style="transform:translate(0, 30px); opacity:0.8" fill="url(#sw-gradient-6)" 
    d="M0,245L26.7,212.3C53.3,180,107,114,160,73.5C213.3,33,267,16,320,57.2C373.3,98,427,196,480,245C533.3,294,587,294,640,253.2C693.3,212,747,131,800,122.5C853.3,114,907,180,960,204.2C1013.3,229,1067,212,1120,179.7C1173.3,147,1227,98,1280,106.2C1333.3,114,1387,180,1440,171.5C1493.3,163,1547,82,1600,89.8C1653.3,98,1707,196,1760,212.3C1813.3,229,1867,163,1920,114.3C1973.3,65,2027,33,2080,81.7C2133.3,131,2187,261,2240,310.3C2293.3,359,2347,327,2400,334.8C2453.3,343,2507,392,2560,351.2C2613.3,310,2667,180,2720,122.5C2773.3,65,2827,82,2880,98C2933.3,114,2987,131,3040,155.2C3093.3,180,3147,212,3200,245C3253.3,278,3307,310,3360,269.5C3413.3,229,3467,114,3520,114.3C3573.3,114,3627,229,3680,277.7C3733.3,327,3787,310,3813,302.2L3840,294L3840,490L3813.3,490C3786.7,490,3733,490,3680,490C3626.7,490,3573,490,3520,490C3466.7,490,3413,490,3360,490C3306.7,490,3253,490,3200,490C3146.7,490,3093,490,3040,490C2986.7,490,2933,490,2880,490C2826.7,490,2773,490,2720,490C2666.7,490,2613,490,2560,490C2506.7,490,2453,490,2400,490C2346.7,490,2293,490,2240,490C2186.7,490,2133,490,2080,490C2026.7,490,1973,490,1920,490C1866.7,490,1813,490,1760,490C1706.7,490,1653,490,1600,490C1546.7,490,1493,490,1440,490C1386.7,490,1333,490,1280,490C1226.7,490,1173,490,1120,490C1066.7,490,1013,490,960,490C906.7,490,853,490,800,490C746.7,490,693,490,640,490C586.7,490,533,490,480,490C426.7,490,373,490,320,490C266.7,490,213,490,160,490C106.7,490,53,490,27,490L0,490Z"></path>
    <defs><linearGradient id="sw-gradient-7" x1="0" x2="0" y1="1" y2="0"><stop stop-color="rgba(0, 0, 0, 1)" offset="0%"></stop><stop stop-color="#141010" offset="100%"></stop></linearGradient></defs><path style="transform:translate(0, 31px); opacity:1" fill="url(#sw-gradient-7)" 
    d="M0,245L26.7,212.3C53.3,180,107,114,160,73.5C213.3,33,267,16,320,57.2C373.3,98,427,196,480,245C533.3,294,587,294,640,253.2C693.3,212,747,131,800,122.5C853.3,114,907,180,960,204.2C1013.3,229,1067,212,1120,179.7C1173.3,147,1227,98,1280,106.2C1333.3,114,1387,180,1440,171.5C1493.3,163,1547,82,1600,89.8C1653.3,98,1707,196,1760,212.3C1813.3,229,1867,163,1920,114.3C1973.3,65,2027,33,2080,81.7C2133.3,131,2187,261,2240,310.3C2293.3,359,2347,327,2400,334.8C2453.3,343,2507,392,2560,351.2C2613.3,310,2667,180,2720,122.5C2773.3,65,2827,82,2880,98C2933.3,114,2987,131,3040,155.2C3093.3,180,3147,212,3200,245C3253.3,278,3307,310,3360,269.5C3413.3,229,3467,114,3520,114.3C3573.3,114,3627,229,3680,277.7C3733.3,327,3787,310,3813,302.2L3840,294L3840,490L3813.3,490C3786.7,490,3733,490,3680,490C3626.7,490,3573,490,3520,490C3466.7,490,3413,490,3360,490C3306.7,490,3253,490,3200,490C3146.7,490,3093,490,3040,490C2986.7,490,2933,490,2880,490C2826.7,490,2773,490,2720,490C2666.7,490,2613,490,2560,490C2506.7,490,2453,490,2400,490C2346.7,490,2293,490,2240,490C2186.7,490,2133,490,2080,490C2026.7,490,1973,490,1920,490C1866.7,490,1813,490,1760,490C1706.7,490,1653,490,1600,490C1546.7,490,1493,490,1440,490C1386.7,490,1333,490,1280,490C1226.7,490,1173,490,1120,490C1066.7,490,1013,490,960,490C906.7,490,853,490,800,490C746.7,490,693,490,640,490C586.7,490,533,490,480,490C426.7,490,373,490,320,490C266.7,490,213,490,160,490C106.7,490,53,490,27,490L0,490Z"></path>
    <defs><linearGradient id="sw-gradient-8" x1="0" x2="0" y1="1" y2="0"><stop stop-color="#f2f2f2" offset="0%"></stop><stop stop-color="#4F5256" offset="100%"></stop></linearGradient></defs><path style="transform:translate(0, 40px); opacity:0.8" fill="url(#sw-gradient-8)" 
    d="M0,245L26.7,212.3C53.3,180,107,114,160,73.5C213.3,33,267,16,320,57.2C373.3,98,427,196,480,245C533.3,294,587,294,640,253.2C693.3,212,747,131,800,122.5C853.3,114,907,180,960,204.2C1013.3,229,1067,212,1120,179.7C1173.3,147,1227,98,1280,106.2C1333.3,114,1387,180,1440,171.5C1493.3,163,1547,82,1600,89.8C1653.3,98,1707,196,1760,212.3C1813.3,229,1867,163,1920,114.3C1973.3,65,2027,33,2080,81.7C2133.3,131,2187,261,2240,310.3C2293.3,359,2347,327,2400,334.8C2453.3,343,2507,392,2560,351.2C2613.3,310,2667,180,2720,122.5C2773.3,65,2827,82,2880,98C2933.3,114,2987,131,3040,155.2C3093.3,180,3147,212,3200,245C3253.3,278,3307,310,3360,269.5C3413.3,229,3467,114,3520,114.3C3573.3,114,3627,229,3680,277.7C3733.3,327,3787,310,3813,302.2L3840,294L3840,490L3813.3,490C3786.7,490,3733,490,3680,490C3626.7,490,3573,490,3520,490C3466.7,490,3413,490,3360,490C3306.7,490,3253,490,3200,490C3146.7,490,3093,490,3040,490C2986.7,490,2933,490,2880,490C2826.7,490,2773,490,2720,490C2666.7,490,2613,490,2560,490C2506.7,490,2453,490,2400,490C2346.7,490,2293,490,2240,490C2186.7,490,2133,490,2080,490C2026.7,490,1973,490,1920,490C1866.7,490,1813,490,1760,490C1706.7,490,1653,490,1600,490C1546.7,490,1493,490,1440,490C1386.7,490,1333,490,1280,490C1226.7,490,1173,490,1120,490C1066.7,490,1013,490,960,490C906.7,490,853,490,800,490C746.7,490,693,490,640,490C586.7,490,533,490,480,490C426.7,490,373,490,320,490C266.7,490,213,490,160,490C106.7,490,53,490,27,490L0,490Z"></path>
    <defs><linearGradient id="sw-gradient-9" x1="0" x2="0" y1="1" y2="0"><stop stop-color="rgba(0, 0, 0, 1)" offset="0%"></stop><stop stop-color="#141010" offset="100%"></stop></linearGradient></defs><path style="transform:translate(0, 41px); opacity:1" fill="url(#sw-gradient-9)" 
    d="M0,245L26.7,212.3C53.3,180,107,114,160,73.5C213.3,33,267,16,320,57.2C373.3,98,427,196,480,245C533.3,294,587,294,640,253.2C693.3,212,747,131,800,122.5C853.3,114,907,180,960,204.2C1013.3,229,1067,212,1120,179.7C1173.3,147,1227,98,1280,106.2C1333.3,114,1387,180,1440,171.5C1493.3,163,1547,82,1600,89.8C1653.3,98,1707,196,1760,212.3C1813.3,229,1867,163,1920,114.3C1973.3,65,2027,33,2080,81.7C2133.3,131,2187,261,2240,310.3C2293.3,359,2347,327,2400,334.8C2453.3,343,2507,392,2560,351.2C2613.3,310,2667,180,2720,122.5C2773.3,65,2827,82,2880,98C2933.3,114,2987,131,3040,155.2C3093.3,180,3147,212,3200,245C3253.3,278,3307,310,3360,269.5C3413.3,229,3467,114,3520,114.3C3573.3,114,3627,229,3680,277.7C3733.3,327,3787,310,3813,302.2L3840,294L3840,490L3813.3,490C3786.7,490,3733,490,3680,490C3626.7,490,3573,490,3520,490C3466.7,490,3413,490,3360,490C3306.7,490,3253,490,3200,490C3146.7,490,3093,490,3040,490C2986.7,490,2933,490,2880,490C2826.7,490,2773,490,2720,490C2666.7,490,2613,490,2560,490C2506.7,490,2453,490,2400,490C2346.7,490,2293,490,2240,490C2186.7,490,2133,490,2080,490C2026.7,490,1973,490,1920,490C1866.7,490,1813,490,1760,490C1706.7,490,1653,490,1600,490C1546.7,490,1493,490,1440,490C1386.7,490,1333,490,1280,490C1226.7,490,1173,490,1120,490C1066.7,490,1013,490,960,490C906.7,490,853,490,800,490C746.7,490,693,490,640,490C586.7,490,533,490,480,490C426.7,490,373,490,320,490C266.7,490,213,490,160,490C106.7,490,53,490,27,490L0,490Z"></path>
    <defs><linearGradient id="sw-gradient-10" x1="0" x2="0" y1="1" y2="0"><stop stop-color="#f2f2f2" offset="0%"></stop><stop stop-color="#4F5256" offset="100%"></stop></linearGradient></defs><path style="transform:translate(0, 50px); opacity:0.8" fill="url(#sw-gradient-10)" 
    d="M0,245L26.7,212.3C53.3,180,107,114,160,73.5C213.3,33,267,16,320,57.2C373.3,98,427,196,480,245C533.3,294,587,294,640,253.2C693.3,212,747,131,800,122.5C853.3,114,907,180,960,204.2C1013.3,229,1067,212,1120,179.7C1173.3,147,1227,98,1280,106.2C1333.3,114,1387,180,1440,171.5C1493.3,163,1547,82,1600,89.8C1653.3,98,1707,196,1760,212.3C1813.3,229,1867,163,1920,114.3C1973.3,65,2027,33,2080,81.7C2133.3,131,2187,261,2240,310.3C2293.3,359,2347,327,2400,334.8C2453.3,343,2507,392,2560,351.2C2613.3,310,2667,180,2720,122.5C2773.3,65,2827,82,2880,98C2933.3,114,2987,131,3040,155.2C3093.3,180,3147,212,3200,245C3253.3,278,3307,310,3360,269.5C3413.3,229,3467,114,3520,114.3C3573.3,114,3627,229,3680,277.7C3733.3,327,3787,310,3813,302.2L3840,294L3840,490L3813.3,490C3786.7,490,3733,490,3680,490C3626.7,490,3573,490,3520,490C3466.7,490,3413,490,3360,490C3306.7,490,3253,490,3200,490C3146.7,490,3093,490,3040,490C2986.7,490,2933,490,2880,490C2826.7,490,2773,490,2720,490C2666.7,490,2613,490,2560,490C2506.7,490,2453,490,2400,490C2346.7,490,2293,490,2240,490C2186.7,490,2133,490,2080,490C2026.7,490,1973,490,1920,490C1866.7,490,1813,490,1760,490C1706.7,490,1653,490,1600,490C1546.7,490,1493,490,1440,490C1386.7,490,1333,490,1280,490C1226.7,490,1173,490,1120,490C1066.7,490,1013,490,960,490C906.7,490,853,490,800,490C746.7,490,693,490,640,490C586.7,490,533,490,480,490C426.7,490,373,490,320,490C266.7,490,213,490,160,490C106.7,490,53,490,27,490L0,490Z"></path>
    <defs><linearGradient id="sw-gradient-11" x1="0" x2="0" y1="1" y2="0"><stop stop-color="rgba(0, 0, 0, 1)" offset="0%"></stop><stop stop-color="#141010" offset="100%"></stop></linearGradient></defs><path style="transform:translate(0, 51px); opacity:1" fill="url(#sw-gradient-11)" 
    d="M0,245L26.7,212.3C53.3,180,107,114,160,73.5C213.3,33,267,16,320,57.2C373.3,98,427,196,480,245C533.3,294,587,294,640,253.2C693.3,212,747,131,800,122.5C853.3,114,907,180,960,204.2C1013.3,229,1067,212,1120,179.7C1173.3,147,1227,98,1280,106.2C1333.3,114,1387,180,1440,171.5C1493.3,163,1547,82,1600,89.8C1653.3,98,1707,196,1760,212.3C1813.3,229,1867,163,1920,114.3C1973.3,65,2027,33,2080,81.7C2133.3,131,2187,261,2240,310.3C2293.3,359,2347,327,2400,334.8C2453.3,343,2507,392,2560,351.2C2613.3,310,2667,180,2720,122.5C2773.3,65,2827,82,2880,98C2933.3,114,2987,131,3040,155.2C3093.3,180,3147,212,3200,245C3253.3,278,3307,310,3360,269.5C3413.3,229,3467,114,3520,114.3C3573.3,114,3627,229,3680,277.7C3733.3,327,3787,310,3813,302.2L3840,294L3840,490L3813.3,490C3786.7,490,3733,490,3680,490C3626.7,490,3573,490,3520,490C3466.7,490,3413,490,3360,490C3306.7,490,3253,490,3200,490C3146.7,490,3093,490,3040,490C2986.7,490,2933,490,2880,490C2826.7,490,2773,490,2720,490C2666.7,490,2613,490,2560,490C2506.7,490,2453,490,2400,490C2346.7,490,2293,490,2240,490C2186.7,490,2133,490,2080,490C2026.7,490,1973,490,1920,490C1866.7,490,1813,490,1760,490C1706.7,490,1653,490,1600,490C1546.7,490,1493,490,1440,490C1386.7,490,1333,490,1280,490C1226.7,490,1173,490,1120,490C1066.7,490,1013,490,960,490C906.7,490,853,490,800,490C746.7,490,693,490,640,490C586.7,490,533,490,480,490C426.7,490,373,490,320,490C266.7,490,213,490,160,490C106.7,490,53,490,27,490L0,490Z"></path>
    <defs><linearGradient id="sw-gradient-12" x1="0" x2="0" y1="1" y2="0"><stop stop-color="#f2f2f2" offset="0%"></stop><stop stop-color="#4F5256" offset="100%"></stop></linearGradient></defs><path style="transform:translate(0, 60px); opacity:0.8" fill="url(#sw-gradient-12)" 
    d="M0,245L26.7,212.3C53.3,180,107,114,160,73.5C213.3,33,267,16,320,57.2C373.3,98,427,196,480,245C533.3,294,587,294,640,253.2C693.3,212,747,131,800,122.5C853.3,114,907,180,960,204.2C1013.3,229,1067,212,1120,179.7C1173.3,147,1227,98,1280,106.2C1333.3,114,1387,180,1440,171.5C1493.3,163,1547,82,1600,89.8C1653.3,98,1707,196,1760,212.3C1813.3,229,1867,163,1920,114.3C1973.3,65,2027,33,2080,81.7C2133.3,131,2187,261,2240,310.3C2293.3,359,2347,327,2400,334.8C2453.3,343,2507,392,2560,351.2C2613.3,310,2667,180,2720,122.5C2773.3,65,2827,82,2880,98C2933.3,114,2987,131,3040,155.2C3093.3,180,3147,212,3200,245C3253.3,278,3307,310,3360,269.5C3413.3,229,3467,114,3520,114.3C3573.3,114,3627,229,3680,277.7C3733.3,327,3787,310,3813,302.2L3840,294L3840,490L3813.3,490C3786.7,490,3733,490,3680,490C3626.7,490,3573,490,3520,490C3466.7,490,3413,490,3360,490C3306.7,490,3253,490,3200,490C3146.7,490,3093,490,3040,490C2986.7,490,2933,490,2880,490C2826.7,490,2773,490,2720,490C2666.7,490,2613,490,2560,490C2506.7,490,2453,490,2400,490C2346.7,490,2293,490,2240,490C2186.7,490,2133,490,2080,490C2026.7,490,1973,490,1920,490C1866.7,490,1813,490,1760,490C1706.7,490,1653,490,1600,490C1546.7,490,1493,490,1440,490C1386.7,490,1333,490,1280,490C1226.7,490,1173,490,1120,490C1066.7,490,1013,490,960,490C906.7,490,853,490,800,490C746.7,490,693,490,640,490C586.7,490,533,490,480,490C426.7,490,373,490,320,490C266.7,490,213,490,160,490C106.7,490,53,490,27,490L0,490Z"></path>
    <defs><linearGradient id="sw-gradient-13" x1="0" x2="0" y1="1" y2="0"><stop stop-color="rgba(0, 0, 0, 1)" offset="0%"></stop><stop stop-color="#141010" offset="100%"></stop></linearGradient></defs><path style="transform:translate(0, 61px); opacity:1" fill="url(#sw-gradient-13)" 
    d="M0,245L26.7,212.3C53.3,180,107,114,160,73.5C213.3,33,267,16,320,57.2C373.3,98,427,196,480,245C533.3,294,587,294,640,253.2C693.3,212,747,131,800,122.5C853.3,114,907,180,960,204.2C1013.3,229,1067,212,1120,179.7C1173.3,147,1227,98,1280,106.2C1333.3,114,1387,180,1440,171.5C1493.3,163,1547,82,1600,89.8C1653.3,98,1707,196,1760,212.3C1813.3,229,1867,163,1920,114.3C1973.3,65,2027,33,2080,81.7C2133.3,131,2187,261,2240,310.3C2293.3,359,2347,327,2400,334.8C2453.3,343,2507,392,2560,351.2C2613.3,310,2667,180,2720,122.5C2773.3,65,2827,82,2880,98C2933.3,114,2987,131,3040,155.2C3093.3,180,3147,212,3200,245C3253.3,278,3307,310,3360,269.5C3413.3,229,3467,114,3520,114.3C3573.3,114,3627,229,3680,277.7C3733.3,327,3787,310,3813,302.2L3840,294L3840,490L3813.3,490C3786.7,490,3733,490,3680,490C3626.7,490,3573,490,3520,490C3466.7,490,3413,490,3360,490C3306.7,490,3253,490,3200,490C3146.7,490,3093,490,3040,490C2986.7,490,2933,490,2880,490C2826.7,490,2773,490,2720,490C2666.7,490,2613,490,2560,490C2506.7,490,2453,490,2400,490C2346.7,490,2293,490,2240,490C2186.7,490,2133,490,2080,490C2026.7,490,1973,490,1920,490C1866.7,490,1813,490,1760,490C1706.7,490,1653,490,1600,490C1546.7,490,1493,490,1440,490C1386.7,490,1333,490,1280,490C1226.7,490,1173,490,1120,490C1066.7,490,1013,490,960,490C906.7,490,853,490,800,490C746.7,490,693,490,640,490C586.7,490,533,490,480,490C426.7,490,373,490,320,490C266.7,490,213,490,160,490C106.7,490,53,490,27,490L0,490Z"></path>
    <defs><linearGradient id="sw-gradient-14" x1="0" x2="0" y1="1" y2="0"><stop stop-color="#f2f2f2" offset="0%"></stop><stop stop-color="#4F5256" offset="100%"></stop></linearGradient></defs><path style="transform:translate(0, 70px); opacity:0.8" fill="url(#sw-gradient-14)" 
    d="M0,245L26.7,212.3C53.3,180,107,114,160,73.5C213.3,33,267,16,320,57.2C373.3,98,427,196,480,245C533.3,294,587,294,640,253.2C693.3,212,747,131,800,122.5C853.3,114,907,180,960,204.2C1013.3,229,1067,212,1120,179.7C1173.3,147,1227,98,1280,106.2C1333.3,114,1387,180,1440,171.5C1493.3,163,1547,82,1600,89.8C1653.3,98,1707,196,1760,212.3C1813.3,229,1867,163,1920,114.3C1973.3,65,2027,33,2080,81.7C2133.3,131,2187,261,2240,310.3C2293.3,359,2347,327,2400,334.8C2453.3,343,2507,392,2560,351.2C2613.3,310,2667,180,2720,122.5C2773.3,65,2827,82,2880,98C2933.3,114,2987,131,3040,155.2C3093.3,180,3147,212,3200,245C3253.3,278,3307,310,3360,269.5C3413.3,229,3467,114,3520,114.3C3573.3,114,3627,229,3680,277.7C3733.3,327,3787,310,3813,302.2L3840,294L3840,490L3813.3,490C3786.7,490,3733,490,3680,490C3626.7,490,3573,490,3520,490C3466.7,490,3413,490,3360,490C3306.7,490,3253,490,3200,490C3146.7,490,3093,490,3040,490C2986.7,490,2933,490,2880,490C2826.7,490,2773,490,2720,490C2666.7,490,2613,490,2560,490C2506.7,490,2453,490,2400,490C2346.7,490,2293,490,2240,490C2186.7,490,2133,490,2080,490C2026.7,490,1973,490,1920,490C1866.7,490,1813,490,1760,490C1706.7,490,1653,490,1600,490C1546.7,490,1493,490,1440,490C1386.7,490,1333,490,1280,490C1226.7,490,1173,490,1120,490C1066.7,490,1013,490,960,490C906.7,490,853,490,800,490C746.7,490,693,490,640,490C586.7,490,533,490,480,490C426.7,490,373,490,320,490C266.7,490,213,490,160,490C106.7,490,53,490,27,490L0,490Z"></path>
    <defs><linearGradient id="sw-gradient-15" x1="0" x2="0" y1="1" y2="0"><stop stop-color="rgba(0, 0, 0, 1)" offset="0%"></stop><stop stop-color="#141010" offset="100%"></stop></linearGradient></defs><path style="transform:translate(0, 71px); opacity:1" fill="url(#sw-gradient-15)" 
    d="M0,245L26.7,212.3C53.3,180,107,114,160,73.5C213.3,33,267,16,320,57.2C373.3,98,427,196,480,245C533.3,294,587,294,640,253.2C693.3,212,747,131,800,122.5C853.3,114,907,180,960,204.2C1013.3,229,1067,212,1120,179.7C1173.3,147,1227,98,1280,106.2C1333.3,114,1387,180,1440,171.5C1493.3,163,1547,82,1600,89.8C1653.3,98,1707,196,1760,212.3C1813.3,229,1867,163,1920,114.3C1973.3,65,2027,33,2080,81.7C2133.3,131,2187,261,2240,310.3C2293.3,359,2347,327,2400,334.8C2453.3,343,2507,392,2560,351.2C2613.3,310,2667,180,2720,122.5C2773.3,65,2827,82,2880,98C2933.3,114,2987,131,3040,155.2C3093.3,180,3147,212,3200,245C3253.3,278,3307,310,3360,269.5C3413.3,229,3467,114,3520,114.3C3573.3,114,3627,229,3680,277.7C3733.3,327,3787,310,3813,302.2L3840,294L3840,490L3813.3,490C3786.7,490,3733,490,3680,490C3626.7,490,3573,490,3520,490C3466.7,490,3413,490,3360,490C3306.7,490,3253,490,3200,490C3146.7,490,3093,490,3040,490C2986.7,490,2933,490,2880,490C2826.7,490,2773,490,2720,490C2666.7,490,2613,490,2560,490C2506.7,490,2453,490,2400,490C2346.7,490,2293,490,2240,490C2186.7,490,2133,490,2080,490C2026.7,490,1973,490,1920,490C1866.7,490,1813,490,1760,490C1706.7,490,1653,490,1600,490C1546.7,490,1493,490,1440,490C1386.7,490,1333,490,1280,490C1226.7,490,1173,490,1120,490C1066.7,490,1013,490,960,490C906.7,490,853,490,800,490C746.7,490,693,490,640,490C586.7,490,533,490,480,490C426.7,490,373,490,320,490C266.7,490,213,490,160,490C106.7,490,53,490,27,490L0,490Z"></path>
    <defs><linearGradient id="sw-gradient-16" x1="0" x2="0" y1="1" y2="0"><stop stop-color="#f2f2f2" offset="0%"></stop><stop stop-color="#4F5256" offset="100%"></stop></linearGradient></defs><path style="transform:translate(0, 80px); opacity:0.8" fill="url(#sw-gradient-16)" 
    d="M0,245L26.7,212.3C53.3,180,107,114,160,73.5C213.3,33,267,16,320,57.2C373.3,98,427,196,480,245C533.3,294,587,294,640,253.2C693.3,212,747,131,800,122.5C853.3,114,907,180,960,204.2C1013.3,229,1067,212,1120,179.7C1173.3,147,1227,98,1280,106.2C1333.3,114,1387,180,1440,171.5C1493.3,163,1547,82,1600,89.8C1653.3,98,1707,196,1760,212.3C1813.3,229,1867,163,1920,114.3C1973.3,65,2027,33,2080,81.7C2133.3,131,2187,261,2240,310.3C2293.3,359,2347,327,2400,334.8C2453.3,343,2507,392,2560,351.2C2613.3,310,2667,180,2720,122.5C2773.3,65,2827,82,2880,98C2933.3,114,2987,131,3040,155.2C3093.3,180,3147,212,3200,245C3253.3,278,3307,310,3360,269.5C3413.3,229,3467,114,3520,114.3C3573.3,114,3627,229,3680,277.7C3733.3,327,3787,310,3813,302.2L3840,294L3840,490L3813.3,490C3786.7,490,3733,490,3680,490C3626.7,490,3573,490,3520,490C3466.7,490,3413,490,3360,490C3306.7,490,3253,490,3200,490C3146.7,490,3093,490,3040,490C2986.7,490,2933,490,2880,490C2826.7,490,2773,490,2720,490C2666.7,490,2613,490,2560,490C2506.7,490,2453,490,2400,490C2346.7,490,2293,490,2240,490C2186.7,490,2133,490,2080,490C2026.7,490,1973,490,1920,490C1866.7,490,1813,490,1760,490C1706.7,490,1653,490,1600,490C1546.7,490,1493,490,1440,490C1386.7,490,1333,490,1280,490C1226.7,490,1173,490,1120,490C1066.7,490,1013,490,960,490C906.7,490,853,490,800,490C746.7,490,693,490,640,490C586.7,490,533,490,480,490C426.7,490,373,490,320,490C266.7,490,213,490,160,490C106.7,490,53,490,27,490L0,490Z"></path>
    <defs><linearGradient id="sw-gradient-17" x1="0" x2="0" y1="1" y2="0"><stop stop-color="rgba(0, 0, 0, 1)" offset="0%"></stop><stop stop-color="#141010" offset="100%"></stop></linearGradient></defs><path style="transform:translate(0, 81px); opacity:1" fill="url(#sw-gradient-17)" 
    d="M0,245L26.7,212.3C53.3,180,107,114,160,73.5C213.3,33,267,16,320,57.2C373.3,98,427,196,480,245C533.3,294,587,294,640,253.2C693.3,212,747,131,800,122.5C853.3,114,907,180,960,204.2C1013.3,229,1067,212,1120,179.7C1173.3,147,1227,98,1280,106.2C1333.3,114,1387,180,1440,171.5C1493.3,163,1547,82,1600,89.8C1653.3,98,1707,196,1760,212.3C1813.3,229,1867,163,1920,114.3C1973.3,65,2027,33,2080,81.7C2133.3,131,2187,261,2240,310.3C2293.3,359,2347,327,2400,334.8C2453.3,343,2507,392,2560,351.2C2613.3,310,2667,180,2720,122.5C2773.3,65,2827,82,2880,98C2933.3,114,2987,131,3040,155.2C3093.3,180,3147,212,3200,245C3253.3,278,3307,310,3360,269.5C3413.3,229,3467,114,3520,114.3C3573.3,114,3627,229,3680,277.7C3733.3,327,3787,310,3813,302.2L3840,294L3840,490L3813.3,490C3786.7,490,3733,490,3680,490C3626.7,490,3573,490,3520,490C3466.7,490,3413,490,3360,490C3306.7,490,3253,490,3200,490C3146.7,490,3093,490,3040,490C2986.7,490,2933,490,2880,490C2826.7,490,2773,490,2720,490C2666.7,490,2613,490,2560,490C2506.7,490,2453,490,2400,490C2346.7,490,2293,490,2240,490C2186.7,490,2133,490,2080,490C2026.7,490,1973,490,1920,490C1866.7,490,1813,490,1760,490C1706.7,490,1653,490,1600,490C1546.7,490,1493,490,1440,490C1386.7,490,1333,490,1280,490C1226.7,490,1173,490,1120,490C1066.7,490,1013,490,960,490C906.7,490,853,490,800,490C746.7,490,693,490,640,490C586.7,490,533,490,480,490C426.7,490,373,490,320,490C266.7,490,213,490,160,490C106.7,490,53,490,27,490L0,490Z"></path>
    <defs><linearGradient id="sw-gradient-18" x1="0" x2="0" y1="1" y2="0"><stop stop-color="#f2f2f2" offset="0%"></stop><stop stop-color="#4F5256" offset="100%"></stop></linearGradient></defs><path style="transform:translate(0, 90px); opacity:0.8" fill="url(#sw-gradient-18)" 
    d="M0,245L26.7,212.3C53.3,180,107,114,160,73.5C213.3,33,267,16,320,57.2C373.3,98,427,196,480,245C533.3,294,587,294,640,253.2C693.3,212,747,131,800,122.5C853.3,114,907,180,960,204.2C1013.3,229,1067,212,1120,179.7C1173.3,147,1227,98,1280,106.2C1333.3,114,1387,180,1440,171.5C1493.3,163,1547,82,1600,89.8C1653.3,98,1707,196,1760,212.3C1813.3,229,1867,163,1920,114.3C1973.3,65,2027,33,2080,81.7C2133.3,131,2187,261,2240,310.3C2293.3,359,2347,327,2400,334.8C2453.3,343,2507,392,2560,351.2C2613.3,310,2667,180,2720,122.5C2773.3,65,2827,82,2880,98C2933.3,114,2987,131,3040,155.2C3093.3,180,3147,212,3200,245C3253.3,278,3307,310,3360,269.5C3413.3,229,3467,114,3520,114.3C3573.3,114,3627,229,3680,277.7C3733.3,327,3787,310,3813,302.2L3840,294L3840,490L3813.3,490C3786.7,490,3733,490,3680,490C3626.7,490,3573,490,3520,490C3466.7,490,3413,490,3360,490C3306.7,490,3253,490,3200,490C3146.7,490,3093,490,3040,490C2986.7,490,2933,490,2880,490C2826.7,490,2773,490,2720,490C2666.7,490,2613,490,2560,490C2506.7,490,2453,490,2400,490C2346.7,490,2293,490,2240,490C2186.7,490,2133,490,2080,490C2026.7,490,1973,490,1920,490C1866.7,490,1813,490,1760,490C1706.7,490,1653,490,1600,490C1546.7,490,1493,490,1440,490C1386.7,490,1333,490,1280,490C1226.7,490,1173,490,1120,490C1066.7,490,1013,490,960,490C906.7,490,853,490,800,490C746.7,490,693,490,640,490C586.7,490,533,490,480,490C426.7,490,373,490,320,490C266.7,490,213,490,160,490C106.7,490,53,490,27,490L0,490Z"></path>
    <defs><linearGradient id="sw-gradient-19" x1="0" x2="0" y1="1" y2="0"><stop stop-color="#141010" offset="0%"></stop><stop stop-color="#141010" offset="100%"></stop></linearGradient></defs><path style="transform:translate(0, 91px); opacity:1" fill="url(#sw-gradient-19)" 
    d="M0,245L26.7,212.3C53.3,180,107,114,160,73.5C213.3,33,267,16,320,57.2C373.3,98,427,196,480,245C533.3,294,587,294,640,253.2C693.3,212,747,131,800,122.5C853.3,114,907,180,960,204.2C1013.3,229,1067,212,1120,179.7C1173.3,147,1227,98,1280,106.2C1333.3,114,1387,180,1440,171.5C1493.3,163,1547,82,1600,89.8C1653.3,98,1707,196,1760,212.3C1813.3,229,1867,163,1920,114.3C1973.3,65,2027,33,2080,81.7C2133.3,131,2187,261,2240,310.3C2293.3,359,2347,327,2400,334.8C2453.3,343,2507,392,2560,351.2C2613.3,310,2667,180,2720,122.5C2773.3,65,2827,82,2880,98C2933.3,114,2987,131,3040,155.2C3093.3,180,3147,212,3200,245C3253.3,278,3307,310,3360,269.5C3413.3,229,3467,114,3520,114.3C3573.3,114,3627,229,3680,277.7C3733.3,327,3787,310,3813,302.2L3840,294L3840,490L3813.3,490C3786.7,490,3733,490,3680,490C3626.7,490,3573,490,3520,490C3466.7,490,3413,490,3360,490C3306.7,490,3253,490,3200,490C3146.7,490,3093,490,3040,490C2986.7,490,2933,490,2880,490C2826.7,490,2773,490,2720,490C2666.7,490,2613,490,2560,490C2506.7,490,2453,490,2400,490C2346.7,490,2293,490,2240,490C2186.7,490,2133,490,2080,490C2026.7,490,1973,490,1920,490C1866.7,490,1813,490,1760,490C1706.7,490,1653,490,1600,490C1546.7,490,1493,490,1440,490C1386.7,490,1333,490,1280,490C1226.7,490,1173,490,1120,490C1066.7,490,1013,490,960,490C906.7,490,853,490,800,490C746.7,490,693,490,640,490C586.7,490,533,490,480,490C426.7,490,373,490,320,490C266.7,490,213,490,160,490C106.7,490,53,490,27,490L0,490Z"></path>

</svg>