<?xml version="1.0" standalone="no"?>
<!DOCTYPE svg PUBLIC "-//W3C//DTD SVG 20010904//EN"
 "http://www.w3.org/TR/2001/REC-SVG-20010904/DTD/svg10.dtd">
<svg version="1.0" xmlns="http://www.w3.org/2000/svg"
 width="500.000000pt" height="500.000000pt" viewBox="0 0 500.000000 500.000000"
 preserveAspectRatio="xMidYMid meet">
<metadata>
Created by potrace 1.14, written by Peter Selinger 2001-2017
</metadata>
<g transform="translate(0.000000,500.000000) scale(0.100000,-0.100000)"
fill="#000000" stroke="none">
<path d="M2432 4629 c-108 -20 -217 -98 -266 -190 -27 -49 -89 -129 -156 -199
-14 -15 -58 -62 -99 -106 -60 -64 -236 -247 -491 -513 -14 -14 -80 -85 -146
-157 -132 -143 -152 -182 -138 -269 21 -141 124 -212 306 -214 l38 -1 -25 -57
c-53 -118 -64 -225 -36 -329 9 -34 8 -54 -5 -105 -32 -125 -3 -234 90 -333 54
-58 58 -85 25 -191 -48 -156 -201 -224 -345 -154 -74 35 -131 144 -154 294
-11 70 -8 347 4 445 2 14 6 61 10 105 4 44 9 105 11 135 30 335 -9 502 -150
632 -89 83 -265 139 -382 122 -122 -17 -262 -115 -248 -173 14 -59 97 -133
185 -164 99 -35 163 -119 201 -264 30 -114 32 -381 5 -683 -4 -36 -9 -92 -12
-125 -3 -33 -7 -69 -9 -80 -22 -110 -26 -499 -6 -600 71 -359 230 -516 521
-516 181 0 390 72 659 227 l64 37 -7 -29 c-3 -16 -23 -63 -43 -104 -42 -85
-121 -169 -244 -262 -132 -99 -172 -159 -172 -260 0 -78 24 -116 94 -151 63
-31 168 -42 253 -26 61 11 173 68 246 124 120 93 334 323 440 473 24 35 47 61
51 60 4 -2 35 -41 69 -88 83 -112 145 -186 255 -298 111 -116 195 -180 304
-235 83 -41 87 -42 185 -42 117 0 163 13 217 62 63 57 72 139 24 234 -26 50
-62 85 -181 176 -44 34 -102 85 -127 113 -49 55 -103 153 -113 209 l-7 33 144
-75 c169 -89 262 -127 379 -155 296 -73 519 13 630 242 98 202 114 400 70 851
-28 287 -35 405 -33 620 1 214 14 291 64 385 41 76 66 99 179 160 104 57 134
80 157 124 20 39 10 68 -41 113 -68 60 -143 84 -256 84 -146 0 -255 -44 -350
-140 -96 -96 -132 -199 -134 -376 -1 -109 11 -332 19 -378 19 -98 22 -514 5
-589 -13 -52 -68 -178 -93 -209 -29 -38 -81 -59 -146 -59 -135 0 -213 54 -250
174 -12 37 -21 87 -21 110 0 36 6 47 46 85 70 67 99 137 98 236 0 44 -6 97
-13 117 -10 30 -9 46 2 92 24 92 14 201 -26 293 -19 43 -34 79 -33 79 0 1 38
4 83 7 44 3 96 12 115 20 40 17 102 77 124 119 19 37 26 125 13 172 -15 55
-48 91 -733 802 -199 207 -226 239 -275 319 -27 44 -67 96 -88 116 -83 80
-215 119 -331 98z"/>
</g>
</svg>
